<?xml version="1.0" encoding="utf-8"?>
<!-- Generator: Adobe Illustrator 16.0.0, SVG Export Plug-In . SVG Version: 6.00 Build 0)  -->
<!DOCTYPE svg PUBLIC "-//W3C//DTD SVG 1.1//EN" "http://www.w3.org/Graphics/SVG/1.1/DTD/svg11.dtd">
<svg version="1.1" id="Layer_1" xmlns="http://www.w3.org/2000/svg" xmlns:xlink="http://www.w3.org/1999/xlink" x="0px" y="0px"
	 width="92px" height="54.329px" viewBox="0 0 92 54.329" enable-background="new 0 0 92 54.329" xml:space="preserve">
<g>
	<polygon fill="#FFFFFF" points="43.242,2.122 29.083,2.122 22.178,2.122 22.178,4.923 29.083,4.923 31.153,4.923 31.153,20.903 
		34.266,20.903 34.266,4.923 38.059,4.923 38.059,20.903 41.172,20.903 41.172,4.923 43.242,4.923 50.146,4.923 50.146,2.122 	"/>
	<path fill="#FFFFFF" d="M59.975,29.547h-3.727l-5.23-7.366h-9.754v7.366H38.06V10.223h15.242c2.028,0,3.621,0.547,4.778,1.642
		c1.156,1.094,1.734,2.576,1.734,4.444c0,1.638-0.473,2.954-1.416,3.951c-0.871,0.925-2.072,1.513-3.603,1.762L59.975,29.547z
		 M52.82,19.298c2.474,0,3.711-0.996,3.711-2.989c0-2.136-1.336-3.204-4.004-3.204H41.263v6.193H52.82z"/>
</g>
<g>
	<path fill="#FFFFFF" d="M24.355,40.558c0-0.913-0.57-1.369-1.711-1.369h-4.813v2.646h4.939
		C23.827,41.834,24.355,41.411,24.355,40.558z"/>
	<path fill="#FFFFFF" d="M2.047,32.209v20.176h88.355V32.209H2.047z M15.025,39.189h-3.947v7.026H9.71v-7.026H5.764v-1.231h9.262
		L15.025,39.189L15.025,39.189z M24.234,46.215L22,43.067h-4.168v3.148h-1.369v-8.26h6.513c0.867,0,1.547,0.234,2.042,0.703
		c0.494,0.467,0.741,1.1,0.741,1.897c0,0.7-0.202,1.263-0.604,1.688c-0.373,0.396-0.886,0.646-1.54,0.752l2.212,3.217h-1.593V46.215
		z M36.605,46.215h-8.646v-8.26h8.327v1.232h-6.958v2.121h4.836v1.232h-4.836v2.439h7.277V46.215z M48.045,46.215h-1.702
		l-6.305-6.772v6.772H38.67v-8.26h1.7l6.307,6.775v-6.775h1.369L48.045,46.215L48.045,46.215z M61.302,39.148h-3.036h-0.91v7.026
		h-1.369v-7.026h-1.668v7.026H52.95v-7.026h-0.91h-3.037v-1.231h3.037h6.226h3.037L61.302,39.148L61.302,39.148z M71.583,43.545
		c0,0.858-0.418,1.556-1.255,2.088c-0.852,0.555-1.988,0.832-3.41,0.832s-2.566-0.277-3.434-0.832
		c-0.836-0.541-1.254-1.235-1.254-2.088v-5.59h1.367v5.26c0,0.646,0.283,1.141,0.851,1.482c0.565,0.342,1.391,0.514,2.47,0.514
		c1.08,0,1.898-0.172,2.458-0.514c0.56-0.343,0.839-0.837,0.839-1.482v-5.26h1.368V43.545z M85.637,46.215h-1.369v-6.754h-0.035
		l-4.287,5.385l-4.256-5.385h-0.033v6.754h-1.369v-8.26h1.711l3.958,4.99l3.976-4.99h1.705V46.215L85.637,46.215z"/>
</g>
<path fill="#FFFFFF" d="M92,54.329H0V0h92V54.329z M0.744,53.588h90.512V0.739H0.744V53.588z"/>
</svg>
