<?xml version="1.0" encoding="utf-8"?>
<!-- Generator: Adobe Illustrator 16.0.0, SVG Export Plug-In . SVG Version: 6.00 Build 0)  -->
<!DOCTYPE svg PUBLIC "-//W3C//DTD SVG 1.1//EN" "http://www.w3.org/Graphics/SVG/1.1/DTD/svg11.dtd">
<svg version="1.1" id="Layer_1" xmlns="http://www.w3.org/2000/svg" xmlns:xlink="http://www.w3.org/1999/xlink" x="0px" y="0px"
	 width="274px" height="162px" viewBox="0 0 274 162" enable-background="new 0 0 274 162" xml:space="preserve">
<rect x="10.714" y="101.375" fill="#FFFFFF" width="253.119" height="48.893"/>
<g>
	<polygon points="128.8,6.549 86.706,6.549 66.176,6.549 66.176,14.879 86.706,14.879 92.861,14.879 92.861,62.386 102.116,62.386 
		102.116,14.879 113.391,14.879 113.391,62.386 122.646,62.386 122.646,14.879 128.8,14.879 149.33,14.879 149.33,6.549 	"/>
	<path d="M178.546,88.09h-11.078l-15.549-21.903h-29.004V88.09h-9.522V30.634h45.312c6.031,0,10.768,1.627,14.206,4.881
		c3.438,3.253,5.157,7.659,5.157,13.213c0,4.869-1.402,8.783-4.207,11.745c-2.592,2.751-6.162,4.499-10.713,5.238L178.546,88.09z
		 M157.277,57.616c7.354,0,11.031-2.961,11.031-8.885c0-6.35-3.969-9.526-11.902-9.526h-33.49v18.411H157.277z"/>
</g>
<g>
	<path d="M72.65,120.823c0-2.715-1.696-4.072-5.087-4.072h-14.31v7.867h14.683C71.079,124.618,72.65,123.353,72.65,120.823z"/>
	<path d="M6.327,96.004v59.981h262.679V96.004H6.327z M44.912,116.75H33.179v20.89H29.11v-20.89H17.376v-3.662h27.536V116.75z
		 M72.291,137.64l-6.644-9.36H53.254v9.36h-4.069v-24.552h19.363c2.577,0,4.6,0.695,6.07,2.086c1.469,1.39,2.204,3.271,2.204,5.646
		c0,2.08-0.6,3.753-1.797,5.019c-1.108,1.178-2.634,1.922-4.578,2.238l6.579,9.563H72.291z M109.07,137.64H83.366v-24.552h24.754
		v3.662H87.435v6.308h14.378v3.661H87.435v7.258h21.635V137.64z M143.083,137.64h-5.063l-18.743-20.134v20.134h-4.069v-24.552h5.053
		l18.752,20.144v-20.144h4.069V137.64L143.083,137.64z M182.494,116.627h-9.027h-2.707v20.894h-4.07v-20.894h-4.957v20.894h-4.07
		v-20.894h-2.706h-9.028v-3.662h9.028h18.512h9.027L182.494,116.627L182.494,116.627z M213.061,129.706
		c0,2.555-1.242,4.623-3.729,6.205c-2.532,1.649-5.912,2.475-10.14,2.475c-4.229,0-7.631-0.824-10.207-2.475
		c-2.487-1.604-3.729-3.674-3.729-6.205v-16.617h4.069v15.634c0,1.922,0.842,3.392,2.525,4.407c1.685,1.019,4.131,1.527,7.342,1.527
		s5.646-0.51,7.309-1.527c1.661-1.016,2.492-2.485,2.492-4.407v-15.634h4.068V129.706L213.061,129.706z M254.837,137.64h-4.069
		v-20.075h-0.102l-12.749,16.006l-12.647-16.007l-0.104,0.001v20.075h-4.068v-24.552h5.086l11.767,14.836l11.817-14.836h5.069
		V137.64L254.837,137.64z"/>
</g>
<path d="M274.667,162H0.333V0.166h274.334V162z M2.328,160.027h270.343V2.14H2.328V160.027z"/>
</svg>
